<svg xmlns="http://www.w3.org/2000/svg" aria-hidden="true" style="position:absolute;width:0;height:0;overflow:hidden">
  <defs>
    <symbol id="icon-Vector-1" viewBox="0 0 16 32">
        <path stroke-linejoin="round" stroke-linecap="round" stroke-miterlimit="4" stroke-width="2.6667" d="M1.538 30.357l11.88-11.877c0.26-0.257 0.467-0.563 0.608-0.901s0.214-0.7 0.214-1.066c0-0.366-0.073-0.728-0.214-1.066s-0.347-0.644-0.608-0.901l-11.88-11.88"/>
    </symbol>
    <symbol id="icon-Vector-2" viewBox="0 0 192 32">
        <path stroke-linejoin="miter" stroke-linecap="round" stroke-miterlimit="10" stroke-width="16" d="M181.515 19.076h-173.516"/>
    </symbol>
    <symbol id="icon-Icon" viewBox="0 0 32 32">
<path stroke-linejoin="round" stroke-linecap="round" stroke-miterlimit="4" stroke-width="5.3333" d="M28.444 3.556l-24.889 24.889M3.556 3.556l24.889 24.889"></path>
</symbol>
<symbol id="icon-Vector-3" viewBox="0 0 46 32">
<path stroke-linejoin="round" stroke-linecap="round" stroke-miterlimit="4" stroke-width="3.5556" d="M1.778 1.778h42.667M1.778 16h42.667M1.778 30.222h42.667"></path>
</symbol>
<symbol id="icon-Burger" viewBox="0 0 44 32">
<path stroke-linejoin="round" stroke-linecap="round" stroke-miterlimit="4" stroke-width="4.3636" d="M2.182 16h39.273M2.182 2.909h39.273M15.273 29.091h26.182"></path>
</symbol>
<symbol id="icon-telegram" viewBox="0 0 32 32">
      <path d="M27.538 4.942l-23.627 9.12c-1.618 0.64-1.618 1.547-0.302 1.956l6.062 1.884 14.044-8.853c0.676-0.409 1.28-0.196 0.782 0.249l-11.378 10.276-0.427 6.258c0.622 0 0.889-0.284 1.227-0.622l2.951-2.862 6.133 4.533c1.138 0.622 1.938 0.302 2.222-1.049l4.018-18.969c0.427-1.653-0.622-2.4-1.707-1.92z"></path>
   </symbol>
   <symbol id="icon-instagram" viewBox="0 0 32 32">
     <path d="M28.711 10.738c-0.018-1.067-0.213-2.133-0.604-3.129-0.658-1.724-2.027-3.076-3.733-3.751-0.996-0.373-2.044-0.569-3.111-0.587-1.369-0.071-1.796-0.089-5.28-0.089-3.467 0-3.911 0-5.262 0.089-1.067 0.018-2.116 0.213-3.111 0.587-1.724 0.676-3.076 2.027-3.751 3.751-0.373 0.978-0.569 2.027-0.587 3.093-0.053 1.369-0.071 1.796-0.071 5.262s0 3.911 0.071 5.262c0.018 1.067 0.213 2.116 0.587 3.111 0.676 1.707 2.027 3.076 3.751 3.733 0.996 0.391 2.044 0.604 3.111 0.64 1.369 0.053 1.796 0.071 5.28 0.071 3.467 0 3.911 0 5.262-0.071 1.067-0.018 2.116-0.213 3.111-0.587 1.724-0.676 3.076-2.027 3.751-3.751 0.373-0.996 0.569-2.027 0.587-3.093 0.053-1.369 0.089-1.796 0.089-5.262-0.018-3.467-0.018-3.911-0.089-5.28zM15.982 22.524c-3.627 0-6.578-2.933-6.578-6.56s2.951-6.56 6.578-6.56c3.627 0 6.578 2.933 6.578 6.56s-2.951 6.56-6.578 6.56zM22.809 10.684c-0.836 0-1.529-0.676-1.529-1.529 0-0.836 0.693-1.529 1.529-1.529 0.853 0 1.529 0.693 1.529 1.529 0 0.853-0.676 1.529-1.529 1.529z"></path>
     <path d="M19.982 15.964c0 2.204-1.796 4-4 4s-4-1.796-4-4c0-2.204 1.796-4 4-4s4 1.796 4 4z"></path>
   </symbol>
   <symbol id="icon-facebook" viewBox="0 0 32 32">
<path d="M32 16.040c0-8.854-7.168-16.040-16-16.040s-16 7.186-16 16.040c0 7.763 5.504 14.228 12.8 15.719v-10.907h-3.2v-4.812h3.2v-4.010c0-3.096 2.512-5.614 5.6-5.614h4v4.812h-3.2c-0.88 0-1.6 0.722-1.6 1.604v3.208h4.8v4.812h-4.8v11.148c8.080-0.802 14.4-7.635 14.4-15.96z"></path>
</symbol>  
<symbol id="icon-X" viewBox="0 0 32 32">
<path d="M0.203 0h9.424l8.387 11.995 10.067-11.995h3.011l-11.931 13.637 12.84 18.363h-9.419l-8.76-12.525-10.813 12.525h-3.008l12.675-14.165-12.472-17.835z"></path>
</symbol>
<symbol id="icon-YouTube" viewBox="0 0 44 32">
<path fill="#fff" style="fill: var(--color1, #fff); stroke: var(--color1, #fff)" stroke="#fff" stroke-linejoin="round" stroke-linecap="round" stroke-miterlimit="4" stroke-width="2.9091" d="M21.818 1.455c20.364 0 20.364 0 20.364 14.545s0 14.545-20.364 14.545-20.364 0-20.364-14.545 0-14.545 20.364-14.545z"></path>
<path fill="#000" style="fill: var(--color2, #000)" d="M17.294 8.727l13.576 7.273-13.576 7.273v-14.545z"></path>
</symbol>
<symbol id="icon-facebook1" viewBox="0 0 32 32">
<path d="M19 6h5v-6h-5c-3.86 0-7 3.14-7 7v3h-4v6h4v16h6v-16h5l1-6h-6v-3c0-0.542 0.458-1 1-1z"></path>
</symbol>
 </defs>
</svg>
